<mxfile host="app.diagrams.net" modified="2023-09-03T18:00:43.763Z" agent="Mozilla/5.0 (Windows NT 10.0; Win64; x64) AppleWebKit/537.36 (KHTML, like Gecko) Chrome/116.0.0.0 Safari/537.36" etag="CS0BFzc2L2pWkYZFRY0s" version="21.7.2" type="device">
  <diagram name="Page-1" id="2YBvvXClWsGukQMizWep">
    <mxGraphModel dx="478" dy="253" grid="1" gridSize="10" guides="1" tooltips="1" connect="1" arrows="1" fold="1" page="1" pageScale="1" pageWidth="850" pageHeight="1100" math="0" shadow="0">
      <root>
        <mxCell id="0" />
        <mxCell id="1" parent="0" />
        <mxCell id="aM9ryv3xv72pqoxQDRHE-1" value="&lt;u&gt;manager&lt;/u&gt;" style="shape=umlLifeline;perimeter=lifelinePerimeter;whiteSpace=wrap;html=1;container=0;dropTarget=0;collapsible=0;recursiveResize=0;outlineConnect=0;portConstraint=eastwest;newEdgeStyle={&quot;edgeStyle&quot;:&quot;elbowEdgeStyle&quot;,&quot;elbow&quot;:&quot;vertical&quot;,&quot;curved&quot;:0,&quot;rounded&quot;:0};" parent="1" vertex="1">
          <mxGeometry x="50" y="40" width="100" height="550" as="geometry" />
        </mxCell>
        <mxCell id="aM9ryv3xv72pqoxQDRHE-2" value="" style="html=1;points=[];perimeter=orthogonalPerimeter;outlineConnect=0;targetShapes=umlLifeline;portConstraint=eastwest;newEdgeStyle={&quot;edgeStyle&quot;:&quot;elbowEdgeStyle&quot;,&quot;elbow&quot;:&quot;vertical&quot;,&quot;curved&quot;:0,&quot;rounded&quot;:0};" parent="aM9ryv3xv72pqoxQDRHE-1" vertex="1">
          <mxGeometry x="45" y="70" width="10" height="450" as="geometry" />
        </mxCell>
        <mxCell id="aM9ryv3xv72pqoxQDRHE-5" value="&lt;u&gt;shop&lt;/u&gt;" style="shape=umlLifeline;perimeter=lifelinePerimeter;whiteSpace=wrap;html=1;container=0;dropTarget=0;collapsible=0;recursiveResize=0;outlineConnect=0;portConstraint=eastwest;newEdgeStyle={&quot;edgeStyle&quot;:&quot;elbowEdgeStyle&quot;,&quot;elbow&quot;:&quot;vertical&quot;,&quot;curved&quot;:0,&quot;rounded&quot;:0};" parent="1" vertex="1">
          <mxGeometry x="220" y="40" width="100" height="550" as="geometry" />
        </mxCell>
        <mxCell id="aM9ryv3xv72pqoxQDRHE-6" value="" style="html=1;points=[];perimeter=orthogonalPerimeter;outlineConnect=0;targetShapes=umlLifeline;portConstraint=eastwest;newEdgeStyle={&quot;edgeStyle&quot;:&quot;elbowEdgeStyle&quot;,&quot;elbow&quot;:&quot;vertical&quot;,&quot;curved&quot;:0,&quot;rounded&quot;:0};" parent="aM9ryv3xv72pqoxQDRHE-5" vertex="1">
          <mxGeometry x="45" y="80" width="10" height="440" as="geometry" />
        </mxCell>
        <mxCell id="aM9ryv3xv72pqoxQDRHE-7" value="add items" style="html=1;verticalAlign=bottom;endArrow=block;edgeStyle=elbowEdgeStyle;elbow=vertical;curved=0;rounded=0;" parent="1" source="aM9ryv3xv72pqoxQDRHE-2" target="aM9ryv3xv72pqoxQDRHE-6" edge="1">
          <mxGeometry relative="1" as="geometry">
            <mxPoint x="195" y="130" as="sourcePoint" />
            <Array as="points">
              <mxPoint x="180" y="120" />
            </Array>
          </mxGeometry>
        </mxCell>
        <mxCell id="R2RP14C7t-mRrZhpZTcG-3" value="update item information" style="html=1;verticalAlign=bottom;endArrow=block;edgeStyle=elbowEdgeStyle;elbow=vertical;curved=0;rounded=0;" parent="1" edge="1">
          <mxGeometry width="80" relative="1" as="geometry">
            <mxPoint x="275" y="200" as="sourcePoint" />
            <mxPoint x="435" y="200" as="targetPoint" />
            <Array as="points">
              <mxPoint x="290" y="200" />
              <mxPoint x="310" y="190" />
            </Array>
          </mxGeometry>
        </mxCell>
        <mxCell id="R2RP14C7t-mRrZhpZTcG-4" value="&lt;u&gt;database&lt;/u&gt;" style="shape=umlLifeline;perimeter=lifelinePerimeter;whiteSpace=wrap;html=1;container=0;dropTarget=0;collapsible=0;recursiveResize=0;outlineConnect=0;portConstraint=eastwest;newEdgeStyle={&quot;edgeStyle&quot;:&quot;elbowEdgeStyle&quot;,&quot;elbow&quot;:&quot;vertical&quot;,&quot;curved&quot;:0,&quot;rounded&quot;:0};" parent="1" vertex="1">
          <mxGeometry x="390" y="40" width="100" height="490" as="geometry" />
        </mxCell>
        <mxCell id="R2RP14C7t-mRrZhpZTcG-5" value="" style="html=1;points=[];perimeter=orthogonalPerimeter;outlineConnect=0;targetShapes=umlLifeline;portConstraint=eastwest;newEdgeStyle={&quot;edgeStyle&quot;:&quot;elbowEdgeStyle&quot;,&quot;elbow&quot;:&quot;vertical&quot;,&quot;curved&quot;:0,&quot;rounded&quot;:0};" parent="R2RP14C7t-mRrZhpZTcG-4" vertex="1">
          <mxGeometry x="45" y="150" width="10" height="20" as="geometry" />
        </mxCell>
        <mxCell id="R2RP14C7t-mRrZhpZTcG-14" value="" style="html=1;points=[];perimeter=orthogonalPerimeter;outlineConnect=0;targetShapes=umlLifeline;portConstraint=eastwest;newEdgeStyle={&quot;edgeStyle&quot;:&quot;elbowEdgeStyle&quot;,&quot;elbow&quot;:&quot;vertical&quot;,&quot;curved&quot;:0,&quot;rounded&quot;:0};" parent="R2RP14C7t-mRrZhpZTcG-4" vertex="1">
          <mxGeometry x="45" y="250" width="10" height="20" as="geometry" />
        </mxCell>
        <mxCell id="HF6Poa-NON1JcMBT02mN-6" value="" style="html=1;points=[];perimeter=orthogonalPerimeter;outlineConnect=0;targetShapes=umlLifeline;portConstraint=eastwest;newEdgeStyle={&quot;edgeStyle&quot;:&quot;elbowEdgeStyle&quot;,&quot;elbow&quot;:&quot;vertical&quot;,&quot;curved&quot;:0,&quot;rounded&quot;:0};" parent="R2RP14C7t-mRrZhpZTcG-4" vertex="1">
          <mxGeometry x="45" y="360" width="10" height="90" as="geometry" />
        </mxCell>
        <mxCell id="R2RP14C7t-mRrZhpZTcG-8" value="" style="endArrow=open;endSize=12;dashed=1;html=1;rounded=0;" parent="1" edge="1">
          <mxGeometry width="160" relative="1" as="geometry">
            <mxPoint x="265" y="150" as="sourcePoint" />
            <mxPoint x="105" y="150" as="targetPoint" />
          </mxGeometry>
        </mxCell>
        <mxCell id="R2RP14C7t-mRrZhpZTcG-9" value="&lt;font style=&quot;font-size: 11px;&quot;&gt;request for information&lt;/font&gt;" style="text;html=1;align=center;verticalAlign=middle;resizable=0;points=[];autosize=1;strokeColor=none;fillColor=none;" parent="1" vertex="1">
          <mxGeometry x="125" y="120" width="130" height="30" as="geometry" />
        </mxCell>
        <mxCell id="R2RP14C7t-mRrZhpZTcG-10" value="provide information(name,&lt;br&gt;quantity)" style="html=1;verticalAlign=bottom;endArrow=block;edgeStyle=elbowEdgeStyle;elbow=vertical;curved=0;rounded=0;" parent="1" edge="1">
          <mxGeometry relative="1" as="geometry">
            <mxPoint x="105" y="190" as="sourcePoint" />
            <Array as="points">
              <mxPoint x="180" y="190" />
            </Array>
            <mxPoint x="265" y="190" as="targetPoint" />
          </mxGeometry>
        </mxCell>
        <mxCell id="R2RP14C7t-mRrZhpZTcG-11" value="change item price" style="html=1;verticalAlign=bottom;endArrow=block;edgeStyle=elbowEdgeStyle;elbow=vertical;curved=0;rounded=0;" parent="1" edge="1">
          <mxGeometry relative="1" as="geometry">
            <mxPoint x="105" y="220" as="sourcePoint" />
            <Array as="points">
              <mxPoint x="180" y="220" />
            </Array>
            <mxPoint x="265" y="220" as="targetPoint" />
          </mxGeometry>
        </mxCell>
        <mxCell id="R2RP14C7t-mRrZhpZTcG-12" value="" style="endArrow=open;endSize=12;dashed=1;html=1;rounded=0;" parent="1" edge="1">
          <mxGeometry width="160" relative="1" as="geometry">
            <mxPoint x="265" y="260" as="sourcePoint" />
            <mxPoint x="105" y="260" as="targetPoint" />
          </mxGeometry>
        </mxCell>
        <mxCell id="R2RP14C7t-mRrZhpZTcG-13" value="&lt;font style=&quot;font-size: 11px;&quot;&gt;request for information&lt;/font&gt;" style="text;html=1;align=center;verticalAlign=middle;resizable=0;points=[];autosize=1;strokeColor=none;fillColor=none;" parent="1" vertex="1">
          <mxGeometry x="125" y="230" width="130" height="30" as="geometry" />
        </mxCell>
        <mxCell id="R2RP14C7t-mRrZhpZTcG-15" value="provide new price(price)" style="html=1;verticalAlign=bottom;endArrow=block;edgeStyle=elbowEdgeStyle;elbow=vertical;curved=0;rounded=0;" parent="1" edge="1">
          <mxGeometry relative="1" as="geometry">
            <mxPoint x="105" y="290" as="sourcePoint" />
            <Array as="points">
              <mxPoint x="180" y="290" />
            </Array>
            <mxPoint x="265" y="290" as="targetPoint" />
          </mxGeometry>
        </mxCell>
        <mxCell id="R2RP14C7t-mRrZhpZTcG-16" value="update new price" style="html=1;verticalAlign=bottom;endArrow=block;edgeStyle=elbowEdgeStyle;elbow=vertical;curved=0;rounded=0;" parent="1" source="aM9ryv3xv72pqoxQDRHE-6" edge="1">
          <mxGeometry width="80" relative="1" as="geometry">
            <mxPoint x="280" y="300" as="sourcePoint" />
            <mxPoint x="435" y="300" as="targetPoint" />
            <Array as="points">
              <mxPoint x="305" y="300" />
            </Array>
          </mxGeometry>
        </mxCell>
        <mxCell id="R2RP14C7t-mRrZhpZTcG-17" value="add/remove a category" style="html=1;verticalAlign=bottom;endArrow=block;edgeStyle=elbowEdgeStyle;elbow=vertical;curved=0;rounded=0;" parent="1" target="aM9ryv3xv72pqoxQDRHE-6" edge="1">
          <mxGeometry x="-0.0323" width="80" relative="1" as="geometry">
            <mxPoint x="105" y="320" as="sourcePoint" />
            <mxPoint x="260" y="320" as="targetPoint" />
            <Array as="points">
              <mxPoint x="120" y="320" />
              <mxPoint x="120" y="380" />
              <mxPoint x="430" y="290" />
            </Array>
            <mxPoint as="offset" />
          </mxGeometry>
        </mxCell>
        <mxCell id="R2RP14C7t-mRrZhpZTcG-18" value="select sales analysis" style="html=1;verticalAlign=bottom;endArrow=block;edgeStyle=elbowEdgeStyle;elbow=vertical;curved=0;rounded=0;" parent="1" edge="1">
          <mxGeometry relative="1" as="geometry">
            <mxPoint x="105" y="440" as="sourcePoint" />
            <Array as="points">
              <mxPoint x="180" y="440" />
            </Array>
            <mxPoint x="265" y="440" as="targetPoint" />
          </mxGeometry>
        </mxCell>
        <mxCell id="R2RP14C7t-mRrZhpZTcG-20" value="fetch sales information" style="html=1;verticalAlign=bottom;endArrow=block;edgeStyle=elbowEdgeStyle;elbow=vertical;curved=0;rounded=0;" parent="1" edge="1">
          <mxGeometry width="80" relative="1" as="geometry">
            <mxPoint x="275" y="450" as="sourcePoint" />
            <mxPoint x="435" y="450" as="targetPoint" />
            <Array as="points">
              <mxPoint x="310" y="450" />
            </Array>
          </mxGeometry>
        </mxCell>
        <mxCell id="R2RP14C7t-mRrZhpZTcG-21" value="" style="endArrow=open;endSize=12;dashed=1;html=1;rounded=0;" parent="1" edge="1">
          <mxGeometry width="160" relative="1" as="geometry">
            <mxPoint x="435" y="480" as="sourcePoint" />
            <mxPoint x="275" y="480" as="targetPoint" />
          </mxGeometry>
        </mxCell>
        <mxCell id="R2RP14C7t-mRrZhpZTcG-22" value="&lt;font style=&quot;font-size: 11px;&quot;&gt;provide sales information&lt;/font&gt;" style="text;html=1;align=center;verticalAlign=middle;resizable=0;points=[];autosize=1;strokeColor=none;fillColor=none;" parent="1" vertex="1">
          <mxGeometry x="280" y="450" width="150" height="30" as="geometry" />
        </mxCell>
        <mxCell id="R2RP14C7t-mRrZhpZTcG-23" value="" style="endArrow=open;endSize=12;dashed=1;html=1;rounded=0;" parent="1" target="aM9ryv3xv72pqoxQDRHE-2" edge="1">
          <mxGeometry width="160" relative="1" as="geometry">
            <mxPoint x="260" y="500" as="sourcePoint" />
            <mxPoint x="110" y="500" as="targetPoint" />
          </mxGeometry>
        </mxCell>
        <mxCell id="R2RP14C7t-mRrZhpZTcG-24" value="&lt;font style=&quot;font-size: 11px;&quot;&gt;show sales information&lt;/font&gt;" style="text;html=1;align=center;verticalAlign=middle;resizable=0;points=[];autosize=1;strokeColor=none;fillColor=none;" parent="1" vertex="1">
          <mxGeometry x="120" y="470" width="140" height="30" as="geometry" />
        </mxCell>
        <mxCell id="HF6Poa-NON1JcMBT02mN-2" value="" style="endArrow=open;endSize=12;dashed=1;html=1;rounded=0;" parent="1" edge="1">
          <mxGeometry width="160" relative="1" as="geometry">
            <mxPoint x="265" y="354.8" as="sourcePoint" />
            <mxPoint x="105" y="354.8" as="targetPoint" />
          </mxGeometry>
        </mxCell>
        <mxCell id="HF6Poa-NON1JcMBT02mN-3" value="&lt;font style=&quot;font-size: 11px;&quot;&gt;request for information&lt;/font&gt;" style="text;html=1;align=center;verticalAlign=middle;resizable=0;points=[];autosize=1;strokeColor=none;fillColor=none;" parent="1" vertex="1">
          <mxGeometry x="125" y="330" width="130" height="30" as="geometry" />
        </mxCell>
        <mxCell id="HF6Poa-NON1JcMBT02mN-4" value="provide new category(cateogry)" style="html=1;verticalAlign=bottom;endArrow=block;edgeStyle=elbowEdgeStyle;elbow=vertical;curved=0;rounded=0;" parent="1" edge="1">
          <mxGeometry relative="1" as="geometry">
            <mxPoint x="105" y="390" as="sourcePoint" />
            <Array as="points">
              <mxPoint x="180" y="390" />
            </Array>
            <mxPoint x="265" y="390" as="targetPoint" />
          </mxGeometry>
        </mxCell>
        <mxCell id="HF6Poa-NON1JcMBT02mN-5" value="update category list" style="html=1;verticalAlign=bottom;endArrow=block;edgeStyle=elbowEdgeStyle;elbow=vertical;curved=0;rounded=0;" parent="1" source="aM9ryv3xv72pqoxQDRHE-6" target="HF6Poa-NON1JcMBT02mN-6" edge="1">
          <mxGeometry x="-0.0625" width="80" relative="1" as="geometry">
            <mxPoint x="280" y="410" as="sourcePoint" />
            <mxPoint x="420" y="410" as="targetPoint" />
            <Array as="points">
              <mxPoint x="315" y="410" />
            </Array>
            <mxPoint as="offset" />
          </mxGeometry>
        </mxCell>
        <mxCell id="HF6Poa-NON1JcMBT02mN-8" value="" style="endArrow=open;endFill=1;endSize=12;html=1;rounded=0;entryX=0.031;entryY=0.933;entryDx=0;entryDy=0;entryPerimeter=0;" parent="1" source="aM9ryv3xv72pqoxQDRHE-2" target="aM9ryv3xv72pqoxQDRHE-6" edge="1">
          <mxGeometry width="160" relative="1" as="geometry">
            <mxPoint x="110" y="530" as="sourcePoint" />
            <mxPoint x="210" y="530" as="targetPoint" />
            <Array as="points" />
          </mxGeometry>
        </mxCell>
        <mxCell id="HF6Poa-NON1JcMBT02mN-10" value="&lt;font style=&quot;font-size: 11px;&quot;&gt;logout&lt;/font&gt;" style="text;html=1;align=center;verticalAlign=middle;resizable=0;points=[];autosize=1;strokeColor=none;fillColor=none;" parent="1" vertex="1">
          <mxGeometry x="160" y="500" width="50" height="30" as="geometry" />
        </mxCell>
      </root>
    </mxGraphModel>
  </diagram>
</mxfile>
